<mxfile host="app.diagrams.net" agent="Mozilla/5.0 (Windows NT 10.0; Win64; x64) AppleWebKit/537.36 (KHTML, like Gecko) Chrome/129.0.0.0 Safari/537.36" version="24.7.16">
  <diagram name="Page-1" id="1wm0WXRVwIfXbaNm_c92">
    <mxGraphModel dx="1290" dy="530" grid="1" gridSize="10" guides="1" tooltips="1" connect="1" arrows="1" fold="1" page="1" pageScale="1" pageWidth="850" pageHeight="1100" math="0" shadow="0">
      <root>
        <mxCell id="0" />
        <mxCell id="1" parent="0" />
        <mxCell id="TuP4ISa-f5NJB8RO511v-8" style="edgeStyle=orthogonalEdgeStyle;rounded=0;orthogonalLoop=1;jettySize=auto;html=1;entryX=0.5;entryY=0;entryDx=0;entryDy=0;" edge="1" parent="1" source="TuP4ISa-f5NJB8RO511v-3" target="TuP4ISa-f5NJB8RO511v-4">
          <mxGeometry relative="1" as="geometry" />
        </mxCell>
        <mxCell id="TuP4ISa-f5NJB8RO511v-3" value="&lt;b&gt;Ingress Controller&lt;/b&gt;" style="ellipse;whiteSpace=wrap;html=1;aspect=fixed;fillColor=#FFFF66;" vertex="1" parent="1">
          <mxGeometry x="290" y="70" width="80" height="80" as="geometry" />
        </mxCell>
        <mxCell id="TuP4ISa-f5NJB8RO511v-11" style="edgeStyle=orthogonalEdgeStyle;rounded=0;orthogonalLoop=1;jettySize=auto;html=1;entryX=0;entryY=0.5;entryDx=0;entryDy=0;" edge="1" parent="1" source="TuP4ISa-f5NJB8RO511v-4" target="TuP4ISa-f5NJB8RO511v-10">
          <mxGeometry relative="1" as="geometry" />
        </mxCell>
        <mxCell id="TuP4ISa-f5NJB8RO511v-16" style="edgeStyle=orthogonalEdgeStyle;rounded=0;orthogonalLoop=1;jettySize=auto;html=1;entryX=0.5;entryY=0;entryDx=0;entryDy=0;" edge="1" parent="1" source="TuP4ISa-f5NJB8RO511v-4" target="TuP4ISa-f5NJB8RO511v-15">
          <mxGeometry relative="1" as="geometry" />
        </mxCell>
        <mxCell id="TuP4ISa-f5NJB8RO511v-4" value="&lt;b&gt;Deep Learning Pod&lt;/b&gt;" style="ellipse;whiteSpace=wrap;html=1;aspect=fixed;fillColor=#FFFF66;" vertex="1" parent="1">
          <mxGeometry x="290" y="220" width="80" height="80" as="geometry" />
        </mxCell>
        <mxCell id="TuP4ISa-f5NJB8RO511v-5" value="&lt;b&gt;Rate Limiter&lt;/b&gt;" style="ellipse;whiteSpace=wrap;html=1;aspect=fixed;fillColor=#FFFF66;" vertex="1" parent="1">
          <mxGeometry x="480" y="380" width="80" height="80" as="geometry" />
        </mxCell>
        <mxCell id="TuP4ISa-f5NJB8RO511v-6" style="edgeStyle=orthogonalEdgeStyle;rounded=0;orthogonalLoop=1;jettySize=auto;html=1;entryX=0.04;entryY=0.38;entryDx=0;entryDy=0;entryPerimeter=0;" edge="1" parent="1" source="TuP4ISa-f5NJB8RO511v-2" target="TuP4ISa-f5NJB8RO511v-3">
          <mxGeometry relative="1" as="geometry" />
        </mxCell>
        <mxCell id="TuP4ISa-f5NJB8RO511v-7" value="&lt;b&gt;Goes to&amp;nbsp;&lt;/b&gt;" style="text;html=1;align=center;verticalAlign=middle;resizable=0;points=[];autosize=1;strokeColor=none;fillColor=none;" vertex="1" parent="1">
          <mxGeometry x="210" y="100" width="70" height="30" as="geometry" />
        </mxCell>
        <mxCell id="TuP4ISa-f5NJB8RO511v-9" value="&lt;b&gt;Forwards to&lt;/b&gt;" style="text;html=1;align=center;verticalAlign=middle;resizable=0;points=[];autosize=1;strokeColor=none;fillColor=none;" vertex="1" parent="1">
          <mxGeometry x="330" y="168" width="90" height="30" as="geometry" />
        </mxCell>
        <mxCell id="TuP4ISa-f5NJB8RO511v-13" style="edgeStyle=orthogonalEdgeStyle;rounded=0;orthogonalLoop=1;jettySize=auto;html=1;entryX=0.5;entryY=0;entryDx=0;entryDy=0;" edge="1" parent="1" source="TuP4ISa-f5NJB8RO511v-10" target="TuP4ISa-f5NJB8RO511v-5">
          <mxGeometry relative="1" as="geometry" />
        </mxCell>
        <mxCell id="TuP4ISa-f5NJB8RO511v-12" value="&lt;b&gt;If Malicious Send alert&lt;/b&gt;" style="text;html=1;align=center;verticalAlign=middle;resizable=0;points=[];autosize=1;strokeColor=none;fillColor=none;" vertex="1" parent="1">
          <mxGeometry x="360" y="230" width="150" height="30" as="geometry" />
        </mxCell>
        <mxCell id="TuP4ISa-f5NJB8RO511v-19" style="edgeStyle=orthogonalEdgeStyle;rounded=0;orthogonalLoop=1;jettySize=auto;html=1;" edge="1" parent="1" source="TuP4ISa-f5NJB8RO511v-14" target="TuP4ISa-f5NJB8RO511v-18">
          <mxGeometry relative="1" as="geometry" />
        </mxCell>
        <mxCell id="TuP4ISa-f5NJB8RO511v-14" value="&lt;b&gt;Run Script&lt;/b&gt;" style="text;html=1;align=center;verticalAlign=middle;resizable=0;points=[];autosize=1;strokeColor=none;fillColor=none;" vertex="1" parent="1">
          <mxGeometry x="490" y="308" width="80" height="30" as="geometry" />
        </mxCell>
        <mxCell id="TuP4ISa-f5NJB8RO511v-15" value="&lt;b&gt;Application Pod&lt;/b&gt;" style="ellipse;whiteSpace=wrap;html=1;aspect=fixed;fillColor=#FFFF66;" vertex="1" parent="1">
          <mxGeometry x="290" y="380" width="80" height="80" as="geometry" />
        </mxCell>
        <mxCell id="TuP4ISa-f5NJB8RO511v-17" value="&lt;b&gt;If benign forward&amp;nbsp;&lt;/b&gt;&lt;div&gt;&lt;b&gt;to actual address&lt;/b&gt;&lt;/div&gt;" style="text;html=1;align=center;verticalAlign=middle;resizable=0;points=[];autosize=1;strokeColor=none;fillColor=none;" vertex="1" parent="1">
          <mxGeometry x="210" y="320" width="120" height="40" as="geometry" />
        </mxCell>
        <mxCell id="TuP4ISa-f5NJB8RO511v-2" value="&lt;b&gt;&lt;font style=&quot;font-size: 14px;&quot;&gt;User Traffic&lt;/font&gt;&lt;/b&gt;" style="rounded=0;whiteSpace=wrap;html=1;fillColor=#66FFFF;" vertex="1" parent="1">
          <mxGeometry x="80" y="70" width="120" height="60" as="geometry" />
        </mxCell>
        <mxCell id="TuP4ISa-f5NJB8RO511v-10" value="&lt;b&gt;Alert System&lt;/b&gt;" style="rounded=0;whiteSpace=wrap;html=1;fillColor=#66FFFF;" vertex="1" parent="1">
          <mxGeometry x="510" y="230" width="120" height="60" as="geometry" />
        </mxCell>
        <mxCell id="TuP4ISa-f5NJB8RO511v-18" value="&lt;b&gt;Android App&lt;/b&gt;" style="ellipse;whiteSpace=wrap;html=1;aspect=fixed;fillColor=#FFFF66;" vertex="1" parent="1">
          <mxGeometry x="600" y="380" width="80" height="80" as="geometry" />
        </mxCell>
        <mxCell id="TuP4ISa-f5NJB8RO511v-20" value="&lt;b&gt;Send Alerts&lt;/b&gt;" style="text;html=1;align=center;verticalAlign=middle;resizable=0;points=[];autosize=1;strokeColor=none;fillColor=none;" vertex="1" parent="1">
          <mxGeometry x="630" y="338" width="90" height="30" as="geometry" />
        </mxCell>
      </root>
    </mxGraphModel>
  </diagram>
</mxfile>
